<svg width="360" height="721" viewBox="0 0 360 721" fill="none" xmlns="http://www.w3.org/2000/svg">
<g clip-path="url(#clip0)">
<path d="M358.295 167.079C359.239 167.079 360 167.838 360 168.782V247.943C360 248.887 359.239 249.648 358.295 249.648H345.164C344.22 249.648 343.459 248.887 343.459 247.943V168.782C343.459 167.838 344.22 167.079 345.164 167.079H358.295Z" fill="black"/>
<path d="M14.8366 97.7257H1.70463C0.76319 97.7257 0 98.4889 0 99.4303V124.053C0 124.994 0.76319 125.757 1.70463 125.757H14.8366C15.7781 125.757 16.5412 124.994 16.5412 124.053V99.4303C16.5412 98.4889 15.7781 97.7257 14.8366 97.7257Z" fill="black"/>
<path d="M1.70508 150.002C0.760712 150.002 0 150.761 0 151.705V200.509C0 201.453 0.760712 202.214 1.70508 202.214H14.8359C15.7803 202.214 16.541 201.453 16.541 200.509V151.705C16.541 150.761 15.7803 150.002 14.8359 150.002H1.70508Z" fill="black"/>
<path d="M1.70508 215.662C0.760712 215.662 0 216.421 0 217.365V266.169C0 267.113 0.760712 267.874 1.70508 267.874H14.8359C15.7803 267.874 16.541 267.113 16.541 266.169V217.365C16.541 216.421 15.7803 215.662 14.8359 215.662H1.70508Z" fill="black"/>
<path fill-rule="evenodd" clip-rule="evenodd" d="M1.96094 53.5312C1.96094 24.2909 25.4998 0.751953 54.7402 0.751953H305.26C334.5 0.751953 358.039 24.2909 358.039 53.5312V668.209C358.039 697.449 334.5 720.99 305.26 720.99H198.297L196.109 717.893H188.353H171.646H163.889L161.703 720.99H54.7402C25.4998 720.99 1.96094 697.449 1.96094 668.209V53.5312ZM23.707 54.2734C23.707 36.5054 38.0112 22.2012 55.7793 22.2012H87.1523C88.5732 22.2013 89.9358 22.7658 90.9405 23.7705C91.9452 24.7751 92.5096 26.1378 92.5098 27.5586V30.0254C92.5098 39.6789 100.28 47.4512 109.934 47.4512H250.066C259.72 47.4512 267.49 39.6789 267.49 30.0254V27.5586C267.49 26.1378 268.055 24.7751 269.059 23.7704C270.064 22.7658 271.427 22.2013 272.848 22.2012H304.221C321.989 22.2012 336.293 36.5054 336.293 54.2734V667.469C336.293 685.237 321.989 699.541 304.221 699.541H55.7793C38.0112 699.541 23.707 685.237 23.707 667.469V54.2734Z" fill="black"/>
</g>
<defs>
<clipPath id="clip0">
<rect width="360" height="721" fill="white"/>
</clipPath>
</defs>
</svg>
