<?xml version="1.0" encoding="UTF-8" standalone="no"?>
<!-- Generator: Gravit.io -->
<svg xmlns="http://www.w3.org/2000/svg" xmlns:xlink="http://www.w3.org/1999/xlink" style="isolation:isolate" viewBox="887 -57 360 721" width="360pt" height="721pt"><defs><clipPath id="_clipPath_iv27ccqEORBq3WqyPjxyoj7DpbdkaNM9"><rect x="887" y="-57" width="360" height="721"/></clipPath></defs><g clip-path="url(#_clipPath_iv27ccqEORBq3WqyPjxyoj7DpbdkaNM9)"><clipPath id="_clipPath_wfOJ586AT9Oy47FKFqueZBXBW0gdLV0w"><rect x="887" y="-57" width="360" height="721" transform="matrix(1,0,0,1,0,0)" fill="rgb(255,255,255)"/></clipPath><g clip-path="url(#_clipPath_wfOJ586AT9Oy47FKFqueZBXBW0gdLV0w)"><g><path d=" M 1245.295 110.079 C 1246.239 110.079 1247 110.838 1247 111.782 L 1247 190.943 C 1247 191.887 1246.239 192.648 1245.295 192.648 L 1232.164 192.648 C 1231.22 192.648 1230.459 191.887 1230.459 190.943 L 1230.459 111.782 C 1230.459 110.838 1231.22 110.079 1232.164 110.079 L 1245.295 110.079 Z " fill="rgb(0,0,0)"/><path d=" M 901.837 40.726 L 888.705 40.726 C 887.763 40.726 887 41.489 887 42.43 L 887 67.053 C 887 67.994 887.763 68.757 888.705 68.757 L 901.837 68.757 C 902.778 68.757 903.541 67.994 903.541 67.053 L 903.541 42.43 C 903.541 41.489 902.778 40.726 901.837 40.726 Z " fill="rgb(0,0,0)"/><path d=" M 888.705 93.002 C 887.761 93.002 887 93.761 887 94.705 L 887 143.509 C 887 144.453 887.761 145.214 888.705 145.214 L 901.836 145.214 C 902.78 145.214 903.541 144.453 903.541 143.509 L 903.541 94.705 C 903.541 93.761 902.78 93.002 901.836 93.002 L 888.705 93.002 Z " fill="rgb(0,0,0)"/><path d=" M 888.705 158.662 C 887.761 158.662 887 159.421 887 160.365 L 887 209.169 C 887 210.113 887.761 210.874 888.705 210.874 L 901.836 210.874 C 902.78 210.874 903.541 210.113 903.541 209.169 L 903.541 160.365 C 903.541 159.421 902.78 158.662 901.836 158.662 L 888.705 158.662 Z " fill="rgb(0,0,0)"/><path d=" M 888.961 -3.469 C 888.961 -32.709 912.5 -56.248 941.74 -56.248 L 1192.26 -56.248 C 1221.5 -56.248 1245.039 -32.709 1245.039 -3.469 L 1245.039 611.209 C 1245.039 640.449 1221.5 663.99 1192.26 663.99 L 1085.297 663.99 L 1083.109 660.893 L 1075.353 660.893 L 1058.646 660.893 L 1050.889 660.893 L 1048.703 663.99 L 941.74 663.99 C 912.5 663.99 888.961 640.449 888.961 611.209 L 888.961 -3.469 Z  M 910.707 -2.727 C 910.707 -20.495 925.011 -34.799 942.779 -34.799 L 974.152 -34.799 C 975.573 -34.799 976.936 -34.234 977.941 -33.229 C 978.945 -32.225 979.51 -30.862 979.51 -29.441 L 979.51 -26.975 C 979.51 -17.321 987.28 -9.549 996.934 -9.549 L 1137.066 -9.549 C 1146.72 -9.549 1154.49 -17.321 1154.49 -26.975 L 1154.49 -29.441 C 1154.49 -30.862 1155.055 -32.225 1156.059 -33.23 C 1157.064 -34.234 1158.427 -34.799 1159.848 -34.799 L 1191.221 -34.799 C 1208.989 -34.799 1223.293 -20.495 1223.293 -2.727 L 1223.293 610.469 C 1223.293 628.237 1208.989 642.541 1191.221 642.541 L 942.779 642.541 C 925.011 642.541 910.707 628.237 910.707 610.469 L 910.707 -2.727 Z " fill-rule="evenodd" fill="rgb(0,0,0)"/></g></g><rect x="962" y="-35" width="204" height="42" transform="matrix(1,0,0,1,0,0)" fill="rgb(255,255,255)"/></g></svg>